<svg xmlns="http://www.w3.org/2000/svg" viewBox="0 0 74.0424 165.185"><g transform="translate(-31.0906 -0.0)"><path fill="#000000" d="M88.428,127.885c-2.506-3.788-5.712-7.119-8.413-10.791c-1.887-2.588-3.939-5.242-5.036-8.201
			c-3.504-9.49-1.827-18.319,4.795-25.846c3.215-3.647,6.993-6.777,10.543-10.108c4.993-4.67,8.254-10.132,8.528-17.326
			c0.283-7.657-3.477-13.911-10.336-15.789c-3.492-0.953-10.787-1.477-10.805-1.321c-10.489,0.518-20.572,2.706-29.8,8.013
			c-8.418,4.838-14.453,11.71-16.13,21.748c-1.416,8.442-0.63,16.86,2.344,24.816c2.658,7.122,6.016,13.957,9.161,20.892
			c3.696,8.141,6.135,16.593,6.333,25.629c0.052,2.332,0.137,4.689,0.582,6.96c1.458,7.636,5.017,13.786,12.208,17.135
			c4.333,2.016,8.902,1.608,13.43,0.956c8.5-1.224,14.075-6.266,15.777-14.248C93.312,142.504,92.979,134.79,88.428,127.885z"/><path fill="#000000" d="M100.588,26.887c3.154-3.879,4.39-8.446,4.545-13.944c-0.101-0.804-0.176-2.155-0.432-3.486
			c-0.204-1.108-0.536-2.207-0.936-3.261c-2.548-6.789-8.896-8.223-13.999-3.185c-5.087,5.03-6.744,16.018-3.371,22.438
			C89.707,31.755,96.079,32.416,100.588,26.887z"/><path fill="#000000" d="M76.332,26.394c3.885-3.867,4.783-11.594,1.884-16.289c-2.576-4.177-7.079-4.414-10.12-0.478
			c-1.979,2.554-2.789,5.547-2.765,8.783c-0.03,2.789,0.625,5.17,1.921,7.085C69.616,28.982,73.37,29.347,76.332,26.394z"/><path fill="#000000" d="M59.297,28.948c1.632-2.019,2.125-4.427,2.232-6.951c-0.119-2.6-0.63-5.063-2.338-7.091c-2.089-2.469-5.039-2.451-7.127,0
			c-3.005,3.535-3.054,10.458-0.094,14.057C54.116,31.588,57.178,31.588,59.297,28.948z"/><path fill="#000000" d="M48.066,33.6c1.772-3.178,0.725-8.567-2.113-10.823c-2.137-1.702-4.658-1.236-5.849,1.239
			c-0.536,1.142-0.709,2.451-1.053,3.687c0.28,2.838,1.071,5.313,3.248,7.094C44.37,36.496,46.757,35.951,48.066,33.6z"/><path fill="#000000" d="M38.695,42.019c0.804-1.254,1.129-2.832,1.696-4.372c-0.56-1.47-0.877-2.929-1.62-4.107
			c-1.23-1.952-3.468-1.939-4.957-0.155c-1.833,2.18-1.964,6.333-0.262,8.646C35.042,44.046,37.349,44.138,38.695,42.019z"/></g></svg>
