<svg xmlns="http://www.w3.org/2000/svg" viewBox="0 0 87.4006 167.261"><g transform="translate(-90.7974 -42.0276)"><path fill="#000000" d="M134.024,84.308c0.018-0.159-7.149-1.604-10.778-1.604c-7.118-0.019-12.392,5.014-14.157,12.464
			c-1.675,7.009,0.043,13.141,3.604,18.974c2.527,4.159,5.341,8.185,7.466,12.568c4.378,9,3.666,17.957-2.247,26.172
			c-1.845,2.562-4.542,4.572-7.039,6.576c-3.574,2.837-7.541,5.176-10.979,8.171c-6.229,5.438-8.592,12.788-9.058,20.868
			c-0.481,8.153,3.541,14.479,11.411,17.932c4.198,1.84,8.485,3.441,13.198,2.655c7.824-1.315,12.902-6.32,16.331-13.262
			c1.022-2.077,1.747-4.329,2.411-6.57c2.594-8.671,7.191-16.167,12.928-23.023c4.865-5.846,9.931-11.545,14.4-17.688
			c4.98-6.887,7.965-14.785,8.859-23.297c1.06-10.127-2.947-18.354-9.748-25.262C153.113,92.382,143.992,87.599,134.024,84.308z"/><path fill="#000000" d="M129.14,69.423c4.95-5.289,6.278-16.325,2.71-22.533c-3.562-6.211-10.054-6.519-14.334-0.652
			c-0.658,0.914-1.279,1.885-1.778,2.902c-0.591,1.202-1.029,2.481-1.34,3.242c-1.309,5.337-1.333,10.074,0.676,14.65
			C117.936,73.563,124.25,74.623,129.14,69.423z"/><path fill="#000000" d="M147.572,74.553c1.766-1.501,3.021-3.623,3.732-6.321c0.896-3.118,0.914-6.217-0.328-9.216
			c-1.882-4.594-6.284-5.562-9.883-2.219c-4.031,3.76-5.237,11.442-2.521,16.197C140.63,76.635,144.357,77.272,147.572,74.553z"/><path fill="#000000" d="M161.376,81.969c3.812-2.682,5.607-9.358,3.647-13.569c-1.364-2.926-4.196-3.724-6.863-1.903
			c-2.204,1.498-3.337,3.736-4.146,6.211c-0.561,2.469-0.725,4.914,0.305,7.294C155.665,83.108,158.593,83.927,161.376,81.969z"/><path fill="#000000" d="M163.897,87.486c0.64,2.606,2.801,3.766,5.249,2.688c2.569-1.142,3.994-3.312,5.011-5.973
			c0-1.285,0.189-2.594-0.036-3.836c-0.481-2.712-2.782-3.82-5.304-2.749C165.48,79.032,163.026,83.946,163.897,87.486z"/><path fill="#000000" d="M177.695,91.054c-0.962-2.109-3.117-2.733-4.816-1.175c-1.029,0.944-1.717,2.259-2.655,3.532
			c0.135,1.638,0.037,3.239,0.47,4.665c0.736,2.398,2.983,2.922,4.956,1.376C177.902,97.673,178.871,93.639,177.695,91.054z"/></g></svg>
